Coordinates
version=1
nRows=39
nColumns=24
inDegrees=yes

Units are S.I. units (second, meters, Newtons, ...)
Angles are in degrees.

endheader
time	pelvis_tilt	pelvis_list	pelvis_rotation	pelvis_tx	pelvis_ty	pelvis_tz	hip_flexion_r	hip_adduction_r	hip_rotation_r	knee_angle_r	ankle_angle_r	subtalar_angle_r	mtp_angle_r	hip_flexion_l	hip_adduction_l	hip_rotation_l	knee_angle_l	ankle_angle_l	subtalar_angle_l	mtp_angle_l	lumbar_extension	lumbar_bending	lumbar_rotation
42.49800000	4.84455933	-1.84559258	-0.77772078	0.60102028	1.04559875	-0.02160049	32.14759397	-2.90617367	-6.95037445	-22.60476961	0.18464344	-0.00000082	0.00000000	-2.54754265	1.38076320	0.20135362	-10.43704325	7.99023119	0.00000249	0.00000000	-19.54310531	-0.47001089	-4.72635202
42.50000000	4.84455933	-1.84559258	-0.77772078	0.60102028	1.04559875	-0.02160049	32.13224854	-2.90617367	-6.95037445	-22.02609840	-0.02091431	-0.00000082	0.00000000	-2.72861120	1.38076320	0.20135362	-10.31995556	7.98755124	0.00000249	0.00000000	-19.54310531	-0.47001089	-4.72635202
42.50200000	4.84455933	-1.84559258	-0.77772078	0.60102028	1.04559875	-0.02160049	32.11794232	-2.90617367	-6.95037445	-21.46113817	-0.21258926	-0.00000082	0.00000000	-2.90738429	1.38076320	0.20135362	-10.20785713	7.98510475	0.00000249	0.00000000	-19.54310531	-0.47001089	-4.72635202
42.50400000	4.84455933	-1.84559258	-0.77772078	0.60102028	1.04559875	-0.02160049	32.10490579	-2.90617367	-6.95037445	-20.91021293	-0.38979063	-0.00000082	0.00000000	-3.08358625	1.38076320	0.20135362	-10.10109717	7.98298137	0.00000249	0.00000000	-19.54310531	-0.47001089	-4.72635202
42.50600000	4.84455933	-1.84559258	-0.77772078	0.60102028	1.04559875	-0.02160049	32.09326135	-2.90617367	-6.95037445	-20.37367755	-0.55210721	-0.00000082	0.00000000	-3.25693714	1.38076320	0.20135362	-10.00001912	7.98127199	0.00000249	0.00000000	-19.54310531	-0.47001089	-4.72635202
42.50800000	4.84455933	-1.84559258	-0.77772078	0.60102028	1.04559875	-0.02160049	32.08292298	-2.90617367	-6.95037445	-19.85197180	-0.69934489	-0.00000082	0.00000000	-3.42699266	1.38076320	0.20135362	-9.90487558	7.98006718	0.00000249	0.00000000	-19.54310531	-0.47001089	-4.72635202
42.51000000	4.84455933	-1.84559258	-0.77772078	0.60102028	1.04559875	-0.02160049	32.07403766	-2.90617367	-6.95037445	-19.34539356	-0.83144532	-0.00000082	0.00000000	-3.59360615	1.38076320	0.20135362	-9.81606294	7.97944172	0.00000249	0.00000000	-19.54310531	-0.47001089	-4.72635202
42.51200000	4.84455933	-1.84559258	-0.77772078	0.60102028	1.04559875	-0.02160049	32.06662813	-2.90617367	-6.95037445	-18.85428656	-0.94853323	-0.00000082	0.00000000	-3.75631974	1.38076320	0.20135362	-9.73380510	7.97947942	0.00000249	0.00000000	-19.54310531	-0.47001089	-4.72635202
42.51400000	4.84455933	-1.84559258	-0.77772078	0.60102028	1.04559875	-0.02160049	32.06087389	-2.90617367	-6.95037445	-18.37889402	-1.05088144	-0.00000082	0.00000000	-3.91512023	1.38076320	0.20135362	-9.65853793	7.98023763	0.00000249	0.00000000	-19.54310531	-0.47001089	-4.72635202
42.51600000	4.84455933	-1.84559258	-0.77772078	0.60102028	1.04559875	-0.02160049	32.05663719	-2.90617367	-6.95037445	-17.91960855	-1.13892713	-0.00000082	0.00000000	-4.06969442	1.38076320	0.20135362	-9.59052311	7.98178183	0.00000249	0.00000000	-19.54310531	-0.47001089	-4.72635202
42.51800000	4.84455933	-1.84559258	-0.77772078	0.60102028	1.04559875	-0.02160049	32.05425424	-2.90617367	-6.95037445	-17.47655961	-1.21320249	-0.00000082	0.00000000	-4.22004319	1.38076320	0.20135362	-9.53016061	7.98415613	0.00000249	0.00000000	-19.54310531	-0.47001089	-4.72635202
42.52000000	4.84455933	-1.84559258	-0.77772078	0.60102028	1.04559875	-0.02160049	32.05355216	-2.90617367	-6.95037445	-17.05012758	-1.27437451	-0.00000082	0.00000000	-4.36579663	1.38076320	0.20135362	-9.47763333	7.98741521	0.00000249	0.00000000	-19.54310531	-0.47001089	-4.72635202
42.52200000	4.84455933	-1.84559258	-0.77772078	0.60102028	1.04559875	-0.02160049	32.05458951	-2.90617367	-6.95037445	-16.64055662	-1.32317675	-0.00000082	0.00000000	-4.50685832	1.38076320	0.20135362	-9.43323540	7.99159148	0.00000249	0.00000000	-19.54310531	-0.47001089	-4.72635202
42.52400000	4.84455933	-1.84559258	-0.77772078	0.60102028	1.04559875	-0.02160049	32.05741628	-2.90617367	-6.95037445	-16.24807870	-1.36042289	-0.00000082	0.00000000	-4.64301696	1.38076320	0.20135362	-9.39716973	7.99671787	0.00000249	0.00000000	-19.54310531	-0.47001089	-4.72635202
42.52600000	4.84455933	-1.84559258	-0.77772078	0.60102028	1.04559875	-0.02160049	32.06209221	-2.90617367	-6.95037445	-15.87290429	-1.38694091	-0.00000082	0.00000000	-4.77416497	1.38076320	0.20135362	-9.36965760	8.00281403	0.00000249	0.00000000	-19.54310531	-0.47001089	-4.72635202
42.52800000	4.84455933	-1.84559258	-0.77772078	0.60102028	1.04559875	-0.02160049	32.06847166	-2.90617367	-6.95037445	-15.51533199	-1.40360324	-0.00000082	0.00000000	-4.90025635	1.38076320	0.20135362	-9.35091398	8.00988590	0.00000249	0.00000000	-19.54310531	-0.47001089	-4.72635202
42.53000000	4.84455933	-1.84559258	-0.77772078	0.60102028	1.04559875	-0.02160049	32.07656135	-2.90617367	-6.95037445	-15.17556085	-1.41129099	-0.00000082	0.00000000	-5.02111687	1.38076320	0.20135362	-9.34104807	8.01793356	0.00000249	0.00000000	-19.54310531	-0.47001089	-4.72635202
42.53200000	4.84455933	-1.84559258	-0.77772078	0.60102028	1.04559875	-0.02160049	32.08633875	-2.90617367	-6.95037445	-14.85378330	-1.41083906	-0.00000082	0.00000000	-5.13672727	1.38076320	0.20135362	-9.34020696	8.02694316	0.00000249	0.00000000	-19.54310531	-0.47001089	-4.72635202
42.53400000	4.84455933	-1.84559258	-0.77772078	0.60102028	1.04559875	-0.02160049	32.09790455	-2.90617367	-6.95037445	-14.55010315	-1.40307283	-0.00000082	0.00000000	-5.24710281	1.38076320	0.20135362	-9.34851179	8.03688402	0.00000249	0.00000000	-19.54310531	-0.47001089	-4.72635202
42.53600000	4.84455933	-1.84559258	-0.77772078	0.60102028	1.04559875	-0.02160049	32.11119174	-2.90617367	-6.95037445	-14.26468499	-1.38877810	-0.00000082	0.00000000	-5.35228751	1.38076320	0.20135362	-9.36605388	8.04771358	0.00000249	0.00000000	-19.54310531	-0.47001089	-4.72635202
42.53800000	4.84455933	-1.84559258	-0.77772078	0.60102028	1.04559875	-0.02160049	32.12609377	-2.90617367	-6.95037445	-13.99768474	-1.36867284	-0.00000082	0.00000000	-5.45226592	1.38076320	0.20135362	-9.39284930	8.05938334	0.00000249	0.00000000	-19.54310531	-0.47001089	-4.72635202
42.54000000	4.84455933	-1.84559258	-0.77772078	0.60102028	1.04559875	-0.02160049	32.14266247	-2.90617367	-6.95037445	-13.74914427	-1.34342766	-0.00000082	0.00000000	-5.54713575	1.38076320	0.20135362	-9.42892769	8.07181751	0.00000249	0.00000000	-19.54310531	-0.47001089	-4.72635202
42.54200000	4.84455933	-1.84559258	-0.77772078	0.60102028	1.04559875	-0.02160049	32.16066531	-2.90617367	-6.95037445	-13.51921889	-1.31364763	-0.00000082	0.00000000	-5.63684885	1.38076320	0.20135362	-9.47420028	8.08493935	0.00000249	0.00000000	-19.54310531	-0.47001089	-4.72635202
42.54400000	4.84455933	-1.84559258	-0.77772078	0.60102028	1.04559875	-0.02160049	32.18013235	-2.90617367	-6.95037445	-13.30788988	-1.27987102	-0.00000082	0.00000000	-5.72152665	1.38076320	0.20135362	-9.52862352	8.09864618	0.00000249	0.00000000	-19.54310531	-0.47001089	-4.72635202
42.54600000	4.84455933	-1.84559258	-0.77772078	0.60102028	1.04559875	-0.02160049	32.20092427	-2.90617367	-6.95037445	-13.11518773	-1.24259251	-0.00000082	0.00000000	-5.80138996	1.38076320	0.20135362	-9.59216484	8.11280831	0.00000249	0.00000000	-19.54310531	-0.47001089	-4.72635202
42.54800000	4.84455933	-1.84559258	-0.77772078	0.60102028	1.04559875	-0.02160049	32.22282261	-2.90617367	-6.95037445	-12.94114108	-1.20221799	-0.00000082	0.00000000	-5.87639954	1.38076320	0.20135362	-9.66462130	8.12731535	0.00000249	0.00000000	-19.54310531	-0.47001089	-4.72635202
42.55000000	4.84455933	-1.84559258	-0.77772078	0.60102028	1.04559875	-0.02160049	32.24585783	-2.90617367	-6.95037445	-12.78560662	-1.15910482	-0.00000082	0.00000000	-5.94665587	1.38076320	0.20135362	-9.74582770	8.14201921	0.00000249	0.00000000	-19.54310531	-0.47001089	-4.72635202
42.55200000	4.84455933	-1.84559258	-0.77772078	0.60102028	1.04559875	-0.02160049	32.26998390	-2.90617367	-6.95037445	-12.64843537	-1.11356470	-0.00000082	0.00000000	-6.01248335	1.38076320	0.20135362	-9.83570264	8.15674541	0.00000249	0.00000000	-19.54310531	-0.47001089	-4.72635202
42.55400000	4.84455933	-1.84559258	-0.77772078	0.60102028	1.04559875	-0.02160049	32.29472019	-2.90617367	-6.95037445	-12.52965838	-1.06591168	-0.00000082	0.00000000	-6.07383862	1.38076320	0.20135362	-9.93394735	8.17132272	0.00000249	0.00000000	-19.54310531	-0.47001089	-4.72635202
42.55600000	4.84455933	-1.84559258	-0.77772078	0.60102028	1.04559875	-0.02160049	32.32023888	-2.90617367	-6.95037445	-12.42891806	-1.01639171	-0.00000082	0.00000000	-6.13108587	1.38076320	0.20135362	-10.04044835	8.18554875	0.00000249	0.00000000	-19.54310531	-0.47001089	-4.72635202
42.55800000	4.84455933	-1.84559258	-0.77772078	0.60102028	1.04559875	-0.02160049	32.34613103	-2.90617367	-6.95037445	-12.34611151	-0.96527476	-0.00000082	0.00000000	-6.18426138	1.38076320	0.20135362	-10.15490203	8.19922085	0.00000249	0.00000000	-19.54310531	-0.47001089	-4.72635202
42.56000000	4.84455933	-1.84559258	-0.77772078	0.60102028	1.04559875	-0.02160049	32.37234257	-2.90617367	-6.95037445	-12.28090057	-0.91280006	-0.00000082	0.00000000	-6.23371438	1.38076320	0.20135362	-10.27714833	8.21211615	0.00000249	0.00000000	-19.54310531	-0.47001089	-4.72635202
42.56200000	4.84455933	-1.84559258	-0.77772078	0.60102028	1.04559875	-0.02160049	32.39872187	-2.90617367	-6.95037445	-12.23294865	-0.85924350	-0.00000082	0.00000000	-6.27955034	1.38076320	0.20135362	-10.40688779	8.22401081	0.00000249	0.00000000	-19.54310531	-0.47001089	-4.72635202
42.56400000	4.84455933	-1.84559258	-0.77772078	0.60102028	1.04559875	-0.02160049	32.42493769	-2.90617367	-6.95037445	-12.20196232	-0.80490862	-0.00000082	0.00000000	-6.32193927	1.38076320	0.20135362	-10.54384380	8.23467301	0.00000249	0.00000000	-19.54310531	-0.47001089	-4.72635202
42.56600000	4.84455933	-1.84559258	-0.77772078	0.60102028	1.04559875	-0.02160049	32.45080459	-2.90617367	-6.95037445	-12.18752217	-0.75012359	-0.00000082	0.00000000	-6.36110786	1.38076320	0.20135362	-10.68776244	8.24386629	0.00000249	0.00000000	-19.54310531	-0.47001089	-4.72635202
42.56800000	4.84455933	-1.84559258	-0.77772078	0.60102028	1.04559875	-0.02160049	32.47601745	-2.90617367	-6.95037445	-12.18922226	-0.69527221	-0.00000082	0.00000000	-6.39720482	1.38076320	0.20135362	-10.83834683	8.25136058	0.00000249	0.00000000	-19.54310531	-0.47001089	-4.72635202
42.57000000	4.84455933	-1.84559258	-0.77772078	0.60102028	1.04559875	-0.02160049	32.50033886	-2.90617367	-6.95037445	-12.20657518	-0.64080228	-0.00000082	0.00000000	-6.43044552	1.38076320	0.20135362	-10.99533529	8.25691675	0.00000249	0.00000000	-19.54310531	-0.47001089	-4.72635202
42.57200000	4.84455933	-1.84559258	-0.77772078	0.60102028	1.04559875	-0.02160049	32.52366656	-2.90617367	-6.95037445	-12.23897909	-0.58722356	-0.00000082	0.00000000	-6.46121802	1.38076320	0.20135362	-11.15856008	8.26028834	0.00000249	0.00000000	-19.54310531	-0.47001089	-4.72635202
42.57400000	4.84455933	-1.84559258	-0.77772078	0.60102028	1.04559875	-0.02160049	32.54566651	-2.90617367	-6.95037445	-12.28591188	-0.53512299	-0.00000082	0.00000000	-6.48946900	1.38076320	0.20135362	-11.32763658	8.26127269	0.00000249	0.00000000	-19.54310531	-0.47001089	-4.72635202
